<svg xmlns:dc="http://purl.org/dc/elements/1.1/" xmlns:cc="http://creativecommons.org/ns#" xmlns:rdf="http://www.w3.org/1999/02/22-rdf-syntax-ns#" xmlns:svg="http://www.w3.org/2000/svg" xmlns="http://www.w3.org/2000/svg" viewBox="0 0 704 704" fill="none"><metadata><rdf:RDF><cc:Work><dc:format>image/svg+xml</dc:format><dc:type rdf:resource="http://purl.org/dc/dcmitype/StillImage"/><dc:title>Open Peeps</dc:title><dc:creator><cc:Agent><dc:title>Pablo Stanley</dc:title></cc:Agent></dc:creator><dc:source>https://www.openpeeps.com/</dc:source><cc:license rdf:resource="https://creativecommons.org/publicdomain/zero/1.0/"/></cc:Work><cc:License rdf:about="https://creativecommons.org/publicdomain/zero/1.0/"><cc:permits rdf:resource="https://creativecommons.org/ns#Reproduction"/><cc:permits rdf:resource="https://creativecommons.org/ns#Distribution"/><cc:permits rdf:resource="https://creativecommons.org/ns#DerivativeWorks"/></cc:License></rdf:RDF></metadata><mask id="avatarsRadiusMask"><rect width="704" height="704" rx="0" ry="0" x="0" y="0" fill="#fff"/></mask><g mask="url(#avatarsRadiusMask)"><g fill-rule="evenodd" clip-rule="evenodd">
<style>
  @media (prefers-color-scheme: dark) {
    path { fill: #ffffff; }
  }
</style>
<path d="M705.281 1074.02a2351.117 2351.117 0 0 1-11.084-68.46c-1.594-10.86-3.149-21.73-4.547-32.618-.979-7.628-2.47-16.351 2.72-22 7.303-7.952 13.937-14.758 14.831-26.149.841-10.717-2.783-22.4-5.049-32.803-4.752-21.816-10.668-43.362-17.205-64.704-6.641-21.683-13.923-43.162-21.31-64.6-6.906-20.044-13.545-40.269-22.54-59.5-17.071-36.495-45.951-63.522-81.643-81.568-8.877-4.488-26.983-20.51-36.257-24.097-8.526-3.298-8.495 6.333-16.886 2.705-6.708-2.9-12.954-6.767-16.71-13.244-4.078-7.033-14.305-16.869-15.862-25.055-3.299-17.351.275-32.12-12.109-45.179-10.994-11.597-25.771-19.542-41.061-23.807-33.636-9.381-78.494-2.822-98.788 28.433-9.693 14.926-13.08 32.968-26.159 45.149-11.421 10.636-8.865 17.908-23.657 23.39-.838.311-23.546-4.56-24.384-4.248-16.182-3.463-31.648 6.23-46.494 11.856-22.133 8.384-43.205 19.298-63.002 32.269-39.92 26.155-74.11 60.118-102.296 98.551-28.42 38.75-50.471 82.182-66.172 127.576a492.842 492.842 0 0 0-10.26 33.455c-1.69 6.307-3.497 12.849-1.438 19.305 1.684 5.283 5.43 9.216 9.829 12.385 5.963 4.297 17.924 7.09 17.69 15.732-.177 6.57-2.406 13.485-3.494 19.978-1.295 7.732-2.36 15.51-3.423 23.276-4.84 35.352-8.607 70.902-10.273 106.552-1.64 35.1-3.001 70.92-.566 106.01.16 2.31.85 4.44 1.964 6.23-1.04.4-1.12 2.34.174 2.61.906.19 1.81.39 2.716.58 1.882 1.42 4.229 2.29 6.93 2.38 1.83.06 3.66.14 5.49.23 19.3 4.04 38.599 7.85 58.152 10.74 23.768 3.5 47.606 6.36 71.518 8.69 49.135 4.78 97.883 3.19 147.083.62 49.124-2.58 98.219-3.18 147.394-1.9 49.218 1.28 98.418 3.42 147.647 4.3 54.999.98 109.914-.52 164.754-4.9 7.519-.59 12.171-6.58 10.688-14.04-8.885-44.75-18.954-89.19-26.911-134.13Z" fill="rgba(255, 219, 180, 1)"/><path d="m201.087 597.521 1.074-.414c14.518-5.671 29.628-14.822 45.421-11.442.558-.208 10.834 1.887 17.872 3.215l-6.68 6.973-11.79 2.268c40.673 67.128 88.778 100.692 144.314 100.692 55.537 0 97.678-33.564 126.425-100.692l3.923-1.085c.484.112 1 .271 1.552.485 9.274 3.587 27.379 19.608 36.256 24.096 35.692 18.047 64.572 45.073 81.643 81.569 8.695 18.59 15.189 38.108 21.85 57.494l.69 2.005c7.387 21.438 14.669 42.918 21.31 64.601 6.253 20.414 11.938 41.015 16.579 61.86l.626 2.844c2.266 10.403 5.89 22.085 5.049 32.803-.318 4.058-1.365 7.534-2.912 10.687l-80.446 28.947 38.326 261.393c-35.107 1.51-70.246 1.9-105.419 1.27-49.229-.88-98.429-3.02-147.647-4.3-47.685-1.24-95.294-.71-142.928 1.67l-12.097.62c-46.613 2.33-92.858 3.52-139.452-1.01l-3.175-.31v-38.24l16.367-212.911-82.945-15.613-81.422-39.546c-2.46-2.459-4.434-5.329-5.532-8.773-1.907-5.98-.498-12.033 1.064-17.905l.375-1.4a492.842 492.842 0 0 1 10.26-33.455c15.7-45.394 37.751-88.827 66.171-127.576 28.187-38.433 62.377-72.396 102.296-98.552 19.797-12.97 40.869-23.884 63.002-32.268Z" fill="rgba(231, 130, 118, 1)"/><path d="M232.235 584.564c5.086-.221 10.272.602 15.346 1.101.442.043.61.725.112.829-9.08 1.897-18.062 4.492-26.98 7.128l-3.819 1.13c-10.057 2.975-19.819 6.044-29.555 10.012-19.404 7.908-37.833 18.582-54.794 30.845C67.233 682.83 19.963 754.324-9.867 828.345a525.982 525.982 0 0 0-20.525 61.653 554.65 554.65 0 0 0-3.83 15.347c-.354 1.505-1.897 5.359-1.05 6.899.747 1.361 3.655 2.202 5.006 2.91l4.561 2.365c8.897 4.585 23.717 12.123 25.203 12.857l2.318 1.141c37.91 18.585 78.418 34.345 121.079 35.436l.334-3.643c1.902-20.141 4.398-40.389 9.846-59.911.293-1.049 1.628-.695 1.75.237 3.035 23.111 2.065 46.402 1.006 69.62-1.875 41.124-4.365 82.224-6.578 123.324-1.108 20.57-2.54 41.11-3.833 61.67-1.295 20.59-1.714 41.68-4.671 62.1-.659 4.55-5.991 7.03-10.029 6.55-4.468-.53-7.905-4.47-7.926-8.98-.054-11.9 1.441-23.94 2.272-35.8.789-11.28 1.636-22.55 2.504-33.82 3.172-41.13 6.821-82.21 10.196-123.33 1.196-14.58 2.488-29.147 3.818-43.715-45.193-1.457-87.414-18.196-127.692-37.754-.583 13.237-1.99 26.45-3.354 39.632-3.805 36.787-7.16 73.557-9.67 110.457-1.269 18.64-2.192 37.3-2.996 55.96a1708.912 1708.912 0 0 0-1.187 36.7l-.137 7.01c-.113 4.44-.564 8.55-4.3 11.78-3.796 3.29-8.922 3.46-12.678 0-5.028-4.63-4.139-10.93-3.99-17.15a1718.048 1718.048 0 0 1 1.775-47.18c1.886-36.64 5.655-73.13 10.58-109.47l1.922-14.03c3.59-26.08 7.532-52.754 15.558-77.877a1428.758 1428.758 0 0 1-9.345-4.691c-5.506-2.788-11.199-5.404-16.55-8.481-4.247-2.441-7.909-5.789-9.09-10.73-1.319-5.505.697-11.526 2.036-16.896l.116-.472a502.049 502.049 0 0 1 4.22-16.153c6.05-21.739 13.53-43.054 22.285-63.849 17.53-41.632 40.157-81.183 67.796-116.944 24.88-32.19 54.269-61.382 88.715-83.276 16.84-10.704 34.786-19.493 53.765-25.707 8.871-2.904 18.523-5.43 27.811-6.47 5.01-.56 10.027-.881 15.061-1.1Zm90.114-65.97c6.044-6.49 18.052.226 15.15 8.82-6.826 20.219-17.696 38.662-34.66 51.948-15.946 12.49-34.961 20.601-55.439 18.87a1.217 1.217 0 0 1-.416-.111l1.765 2.394c13.854 18.741 28.47 37.223 46.087 52.541 35.893 31.211 84.763 48.045 131.953 36.07 37.128-9.421 69.838-38.78 79.458-76.196-1.379.618-3.018.829-4.817.438-7.697-1.671-15.317-9.766-20.281-15.57-5.37-6.279-9.564-13.059-12.638-20.723-5.626-14.026-7.43-32.085.252-45.672.948-1.675 3.134-.736 3.32.899l.292 2.552c1.481 12.734 3.326 25.051 9.33 36.659 2.938 5.68 6.46 11.224 10.747 15.981 2.294 2.545 4.781 4.977 7.466 7.111 2.616 2.079 5.783 3.583 8.128 5.968l.43.458.012-.082c.593-5.041 4.128-7.262 7.587-7.123 3.347.135 7.279 1.608 8.802 2.314l.144.068c23.352 11.21 44.859 25.821 65.099 42.031 41.856 33.524 73.217 77.349 88.412 128.957 7.458 25.329 11.737 51.428 16.254 77.405l2.782 15.917c4.216 23.981 8.926 48.435 18.444 70.743 2.462 5.771.564 11.183-5.473 13.452-7.538 2.834-15.104 5.578-22.682 8.288 3.721 15.963 5.99 32.479 8.778 48.519 5.926 34.1 13.187 67.98 19.413 102.04 3.183 17.41 6.055 34.88 9.235 52.29 1.531 8.39 3.129 16.76 4.683 25.14.837 4.52 1.596 9.06 2.395 13.58l.139.76c.458 2.38 1.033 4.85.376 7.24-.749 2.73-2.876 4.65-4.775 6.61-1.563 1.61-3.822 1.62-5.737.74l-.63-.29c-3.42-1.6-6.1-3.2-7.313-7.06-.768-2.44-1.045-5.19-1.547-7.71-.963-4.82-1.876-9.66-2.738-14.5a3535.65 3535.65 0 0 1-5.052-29.1l-1.536-9.09c-5.27-31.33-10.275-62.85-12.805-94.51-1.123-14.05-2.312-28.08-3.513-42.12l-.901-10.524c-1.14-13.325-2.533-26.987-2.73-40.492l-4.532 1.609-22.11 7.816c-5.482 1.937-12.462 5.907-18.362 5.185-2.888-.354-5.09-1.263-6.79-2.915 2.036 28.733 4.792 57.421 8.465 85.951 3.342 25.97 7.047 51.9 11.423 77.71 2.167 12.78 4.394 25.55 6.813 38.29 1.209 6.37 2.457 12.73 3.743 19.08.641 3.17 1.404 6.35 1.904 9.54.572 3.66-.436 5.91-2.481 8.93-1.679 2.47-5.038 3.74-7.761 2.03-3.606-2.26-5.487-4.22-6.548-8.34-.964-3.75-1.55-7.65-2.296-11.44-1.377-7-2.708-14.01-3.993-21.02-2.687-14.68-5.164-29.38-7.376-44.14-7.795-51.97-12.741-104.37-15.239-156.859-1.233-25.897-1.614-51.817-1.395-77.741.112-13.288.546-26.614 1.486-39.869.952-13.417 2.932-26.566 4.7-39.854.062-.468.722-.495.75 0 .837 14.898 2.149 29.779 2.792 44.716.614 14.253.883 28.528 1.371 42.786.641 18.742 1.53 37.495 2.707 56.235 2.131-2.331 5.343-3.675 8.557-3.15 4.656-.977 9.668-3.42 14.107-4.903l16.734-5.59c8.797-2.938 17.594-5.856 26.422-8.686-7.893-26.553-13.3-53.502-17.917-80.844l-2.059-12.297c-4.075-24.204-8.47-48.419-15.852-71.858-7.761-24.642-19.375-47.552-34.782-68.299-15.187-20.447-33.664-38.451-52.688-55.291-16.287-14.416-33.71-27.432-50.322-41.452.174.929.211 1.952.058 3.076-3.532 25.85-17.017 49.923-35.81 67.828-37.755 35.971-93.642 43.434-141.964 26.566-46.743-16.316-88.07-54.958-102.671-102.775-.25-.818.846-1.143 1.286-.542.81 1.11 1.624 2.22 2.439 3.33-.055-.441.174-.921.718-1.131 17.036-6.578 33.765-15.907 46.535-29.104 6.224-6.433 11.656-13.721 15.944-21.581 2.054-3.765 3.899-7.664 5.371-11.693l.374-1.042c1.784-5.047 3.275-10.193 6.999-14.192Z" fill="#000"/></g><g transform="matrix(.99789 0 0 1 156 62)"><g fill-rule="evenodd" clip-rule="evenodd"><path d="M195.396 82.672c151.569-7.454 219.966 99.264 224.39 146.93 3.071 33.088-16.478 71.225-16.478 100.791 0 15.092 18.478 47.493 9.876 69.489-19.147 48.959-59.687 103.294-111.347 103.294s-118.893 14.287-175.975-67.445c-5.356-7.669-73.1-51.255-79.681-92.671C29.787 239.895 87.244 87.99 195.396 82.672Z" fill="rgba(255, 219, 180, 1)"/><path d="M188.25 16.257c5.42-6.2 14.57-8.68 22.7-8.2 11.81.7 22.081 7.99 33.831 8.53 12.319.57 24.209-3.7 36.559-1.72 7.57 1.22 15.07 4.73 19.92 10.65 16.8-4.81 35.04 1.56 45.74 15.47 13.2-2.05 27.56 6.691 31.6 19.41 16.77.54 32.6 14.01 34.47 30.89 6.701 1.77 12.52 6.391 16.09 12.5 4.15 7.08 4.84 15.2 4.09 23.18 7.89 4.03 11.9 12.69 12.95 21.85 7.21 5.38 10.34 15.05 8.87 24.18 5.52 3.11 8.371 10.35 8.34 16.81-.03 6.03-1.629 11.371.621 17.19 2.004 5.183 2.724 9.502 1.621 14.931l-.112.529a60.495 60.495 0 0 0-.506 2.571c1.493 1.31 2.756 2.952 3.704 4.862 3.458 6.98 2.943 14.941.306 22.02 1.155 4.508 1.008 9.27-.699 13.603 3.197 4.605 4.878 10.253 4.384 16.113-.554 6.561-3.55 12.436-8.093 16.78 1.21 8.962-2.434 18.645-9.023 24.955.935 5.365.128 10.988-2.807 16.074-2.092 3.625-4.908 6.325-8.157 8.207a26.347 26.347 0 0 1-1.294 9.121c-1.383 4.256-3.725 8.177-6.807 11.335 1.839 11.758-5.201 24.805-17.592 28.104a12.565 12.565 0 0 1-2.985.424c-1.231 11.309-3.919 22.461-8.081 33.052-10.58 26.969-29.82 50.549-54.91 65.259-12.41 7.27-26.35 12.25-40.58 14.33-10.24 1.5-20.09 1.13-30.369.11-12.901-1.29-25.861-3.22-38.401-6.54l-2.017-.536c-5.198-1.393-10.679-3-15.183-5.804-5.04-3.14-7.659-7.98-8.819-13.68-.647-3.172 1.362-6.584 4.835-6.65h.224c.76.016 1.514-.013 2.277-.061l.574-.039h.029c.04-.01.061-.01.1-.01.34-.05.67-.15 1-.2 3.821-.643 7.162-.005 10.75 1.188l.45.152c6.04 2.08 12.03 4.01 18.27 5.44 6.45 1.47 12.98 2.64 19.53 3.56l.65.08.2.03.1.01c.02 0 .04 0 .06.01l1.93.24c1.521.18 3.04.34 4.56.5 2.8.28 5.6.5 8.4.66 48.33 2.72 88.92-35.33 101.17-80.95 4.44-16.51 4.73-32.98 3.42-49.46-.42-1.2-.67-2.53-.66-3.99 0-.76.041-1.51.09-2.27-1.629-15.94-4.459-31.89-6.23-47.89-2.069-18.69-3.22-37.489-2.8-56.3.21-9.29 1.2-18.49 2.5-27.689l.47-3.305a32.218 32.218 0 0 1-15.686-7.966c-9.438 5.45-21.653 5.933-30.969.178-10.44 6.547-25.026 7.141-35.539.74-6.354 4.536-14.36 6.493-22.219 4.771-3.535-.774-7.05-2.449-10.06-4.768a28.752 28.752 0 0 1-6.491.413l-.447.25c-4.99 2.63-10.518 4.361-16.207 4.168-4.212-.142-8.551-.973-12.568-2.545-4.291 2.59-8.987 4.358-14.011 4.992-7.337.925-15.255-.698-21.357-4.86-11.151 6.352-24.867 7.33-36.903 3.062-2.465 4.175-5.876 7.775-9.87 10.55.715 2.562.943 5.294.697 7.921-.404 4.324-1.488 8.201-3.261 11.683 1.869 3.888 2.431 8.662 1.385 13.454-1.491 6.834-5.467 12.779-10.615 17.409-.454 10.906-6.435 21.132-16.169 26.813-.493.287-.983.521-1.472.732a7.24 7.24 0 0 1-1.531 1.541c-6.19 5.719-15.986 5.264-23.745 2.033-.15.007-.299.02-.451.023-2.771.07-4.66-1.01-5.781-2.6-1.129.061-2.25.18-3.379.39-4.121.77-8.641 2.25-12.371 4.171-9.68 4.979-14.16 13.779-15.5 24.359-1.459 11.54 1.86 23.3 10.791 31.11 4.339 3.8 9.889 6.18 15.529 7.18 6.23 1.11 12.89-1.62 17.49 3.73.92 1.06 1.55 2.54 1.05 3.97-1.56 4.46-4.13 6.17-8.15 6.79 5.81 6.89 11.77 13.55 18.37 19.74 7.14 6.71 14.52 13.21 20.961 20.61 6.809 7.83 12.959 16.13 17.229 25.63 2.44 5.46 4.4 11.09 6.511 16.68l.377.974c2.354 5.939 5.484 11.664 1.862 17.866-1.44 2.44-4.7 4.8-7.7 4.41-8.449-1.08-11.279-6.79-13.88-14.23-1.96-5.62-3.46-11.4-5.569-16.97a63.593 63.593 0 0 0-1.276-3.067c-4.872 1.358-10.229.28-14.577-2.498a35.306 35.306 0 0 1-14.764 2.999c-6.656-.117-12.737-1.966-17.965-5.301-.416-.11-.834-.216-1.249-.335-7.953 3.046-17.267 2.502-24.468-2.435-4.663-3.197-7.851-7.464-9.663-12.215-6.025-.115-11.985-2.251-16.302-6.525-3.964-3.924-6.281-8.987-6.969-14.248-5.186-1.027-10.048-3.534-13.861-7.757-3.184-3.527-5.119-8.019-5.773-12.683-6.316-1.802-12.012-5.926-15.123-11.676-2.895-5.353-3.313-11.16-1.897-16.442l-.367-.528c-6.506-3.405-11.471-8.979-11.981-16.941a19.75 19.75 0 0 1 .715-6.681c-.222-2.399-.08-4.797.549-7.117-8.75-8.51-11.92-22.18-7.17-33.48-8.55-9.2-10.81-23.75-4.54-34.669-4.3-5.201-6.51-11.831-6.14-18.911.46-8.839 4.51-16.56 9.36-23.71-3.6-3.98-5.52-9.53-5.379-14.89.199-7.77 4.329-14.46 9.5-20-4.511-13.68.529-28.52 11.599-37.18-2.24-3.69-3.07-8.26-2.339-12.89 1.279-8.09 7.349-13.6 13.899-17.96-1.37-4.459-1.01-9.27 1.17-13.88 2.91-6.15 8.4-10.05 14.13-13.35 1.48-13.64 16.72-25.29 29.5-18.25-3.17-10.15 5.961-21.11 16.461-22.27 5.139-15.58 22.869-25.4 38.809-21.53 8.15-11.14 23.32-15.429 36.2-10.65 14.161-10.85 31.73-12.46 48.3-6.95ZM87.38 322.168c9.95-.54 17.41 7.58 22.651 15.01 4.919 6.97-7.701 14.33-11.381 6.65-1.32-2.74-2.82-5.64-4.83-8.04-.337.472-.636.962-.932 1.464l-.298.506c-.22.37-.45.75-.64 1.14.02.07-.28.99-.29 1.03-.82 2.49-2.61 4.09-5.049 4.95-3.151 1.1-6.131-1.27-7.141-4.05-1.609-4.44 2.13-8.31 6.02-10.07-3.82-.62-7.58.68-10.34 3.62-.379.41-1.02.08-1.039-.43-.321-6.97 6.969-11.44 13.269-11.78Z" fill="#000"/></g></g><g transform="translate(315 248)"><path fill-rule="evenodd" clip-rule="evenodd" d="M126.15 196.292c5.594-9.202 17.518 13.34 18.784 17.216a51.15 51.15 0 0 1 2.24 10.509c4.337.972 8.84.974 13.284.122 6.605-1.267 10.642-4.818 16.382-7.867 3.965-2.106 8.962.364 11.024 3.858 2.425 4.113.88 8.381-2.31 11.447-6.049 5.814-17.951 7.149-25.847 5.605-4.524-.884-8.67-2.58-12.331-5.046-.025.46-.041.92-.077 1.38l-.07.797c-.607 6.448-2.379 14.556-7.387 18.751-8.215 6.883-18.352-6.353-10.371-13.228l.248-.206c4.961-4.009 6.043-14.764 5.776-20.688a42.832 42.832 0 0 0-2.1-11.464l-.251-.734c-.367-1.04-4.374-10.907-5.822-9.651l-.069.071c-.597.713-1.562-.117-1.103-.872Zm44.664-51.925c7.551 4.59 19.057 15.293 10.934 26.673-9.562 10.033-23.33-1.471-30.114-6.674-6.291-4.032-13.359 6.338-7.522 11.047 49.023 36.295 68.918-29.846 30.521-36.443-4.227-.727-5.797 3.977-3.819 5.397ZM90.178 101.94c7.38-1.309 14.94.526 21.047 4.844l.463.333c5.884 4.303 12.467 11.858 9.09 19.275-1.355 2.978-5.413 3.445-7.988 2.095-4.287-2.248-5.064-7.779-8.889-10.84-3.137-2.509-7.36-4.031-11.4-3.664-9.492.862-15.33 10.223-18.278 18.29-.377 1.032-1.892 1.433-2.484.325-6.95-12.992 5.353-28.336 18.44-30.658Zm118.211-4.903c14.137-1.165 30.684 13.491 26.962 28.413-1.785 7.16-12.406 6.955-14.294 0-1.039-3.827-.935-7.213-3.69-10.391-2.274-2.624-5.505-4.148-8.978-3.914-3.828.258-7.359 2.171-10.042 4.86-2.423 2.428-3.872 5.981-6.382 8.13-.618.528-1.445.562-2.055 0-4.32-3.983-1.727-12.275 1.012-16.433 3.92-5.95 10.303-10.074 17.467-10.665ZM63.257 75.475c9.07-8.028 25.548-15.78 37.777-11.83 7.031 2.271 10.096 13.6 2.247 17.191-9.089 4.158-19.568 2.466-28.819 6.776-3.885 1.811-7.538 4.074-10.243 7.393-2.131 2.616-4.3 6.058-7.381 7.566-.81.397-1.907.407-2.556-.329-6.756-7.642 3.077-21.546 8.976-26.767Zm129.544-12.228c5.605-1.573 11.823-1.541 17.517-.553 5.692.988 11.471 3.347 16.118 6.788l.54.403c5.073 3.822 11.127 9.384 10.802 16.157-.271 5.655-6.22 9.48-11.356 6.516-4.187-2.417-6.157-7.26-9.702-10.483-2.925-2.661-6.361-4.76-10.027-6.23-4.072-1.632-8.151-2.397-12.521-2.47-3.365-.056-6.75 1.048-10.052 1.4.272.559-2.338.299-3.834-.196-1.108-.472-1.114-1.873-.73-2.782 1.905-4.503 8.836-7.314 13.245-8.55Z" fill="#000"/></g><g transform="translate(279 400)"/><g transform="translate(179 343)"><g fill-rule="evenodd" clip-rule="evenodd"><path d="M344.334 27.115c-8.836-9.17-17.705-18.473-29.01-24.81.498-2.716-.6-5.837-3.827-7.137-31.292-11.7-51.185 21.974-73.847 37.019-5.296 2.846-10.607 6.129-16.52 7.241-12.573 3.671-23.242 11.272-30.823 21.259-4.097 3.935-11.319 10.501-13.325 15.851-1.228 2.184-111.28-50.174-136.326-56-11.86-3.967-18.247 7.246-3.213 13 39.503 15.121 116.849 48.97 134.118 58.723-3.318 10.239-4.309 23.81-1.078 33.936-2.716 15.761 2.557 30.2 12.979 41.516 2.208 3.213 5.584 5.529 7.781 8.317 7.981 20.862 27.133 30.953 49.545 40.924 35.663 15.867 66.75 19.046 86.294 12.096 50.733-19.368 80.178-76.279 70.692-128.133-8.923-36.529-7.081-68.572-53.44-73.802Z" fill="#9DDADB"/><path d="M234.277 26.877c30.517-17.034 35.67-51.752 79.929-34.103 13.828 5.586 18.685 13.855 27.911 24.184 4.777 4.342 10.792 6.501 16.727 8.813 22.574 7.494 35.811 28.785 40.86 51.15 13.209 46.424-.621 100.807-34.38 134.59.476.856.383 2.089-.647 2.658a307.19 307.19 0 0 0-5.66 3.205c-11.808 10.201-35.764 23.614-53.523 23.614-39.597 0-77.848-16.064-101.223-36.682-29.919-24.13-48.787-74.477-39.08-110.712-55.632-26.191-107.166-46.082-128.707-54.71 0 0-7.974-8.363-.145-6.152C86.915 47.02 186.505 93.49 187.703 93.538c.711.03 3.322-5.678 3.837-8.13-2.33-.254-139.7-59.513-156.809-65.01l-.905-.29c-8.137-2.57-6.104-4.57.15-4.206 12.678.74 120.171 50.636 141.089 55.636 9.345-21 35.891-31.9 59.212-44.66Zm66.635-29.77c-16.989-5-29.479 7.331-38.566 20.256-21.436 26.58-60.536 27.421-76.682 59.003l-.483.966 6.392 1.92.174-.288c.504-.784 2.004-2.775 3.276-.963 6.61 7.104-3.738 30.686-9.172 20.3l-.163-.326-8.875-2.443c-16.03 64.966 45.141 123.459 106.687 133.365 0 0 25.678.411 35.969-2.074 7.588-1.832 14.144-5.376 21.148-8.893 6.961-3.495 12.711-8.906 19.454-12.604 19.265-19.102 31.933-45.327 35.378-72.53 3.373-32.619.215-74.15-28.093-94.836-9.319-5.91-20.808-7.498-29.327-14.806C327.862 11.918 315.961.492 300.912-2.894ZM270.359 149.71c-.285-.468.373-.917.746-.568a356.213 356.213 0 0 1 17.278 17.357c.294-.093.627-.182 1.057-.287 2.043-.499 3.808 1.635 2.82 3.516l-.235.421c-1.486 2.53-4.904 4.757-6.938 1.707a352.589 352.589 0 0 1-14.728-22.146Zm-73.622 13.373-.006-.219c-.114-2.173-1.879-7.654 1.71-6.814 4.153 2.416 5.691 8.732 5.924 13.218.256 4.924-7.909 4.986-7.698 0 .088-2.064.251-4.124.07-6.185Zm172.455-15.153a.514.514 0 0 1 .383.942c-6.582 3.698-6.031 11.153-7.093 17.366-7.559 5.038-6.79-16.547 6.71-18.308Zm-188.885-26.378c63.39 6.392 131.58 25.315 196.412 6.074 3.928-1.066 5.486 5.009 1.57 6.059-65.349 16.563-134.74 6.669-197.982-12.133Zm171.92-26.184c1.961-.456 3.81 9.227 6.837 11.029 1.505 3.028 13.439 5.694 8.41 9.407-8.583 1.793-17.995-12.716-15.247-20.436Zm-55.687 2.293c1.473-.03 2.481 1.1 2.963 2.384 1.315 3.771-4.314 3.171-6.411 4.425-8.869 6.108-19.112 11.034-30.011 11.262-.681.014-.687-.887-.13-1.105l1.9-.745c5.996-2.358 11.773-4.776 17.288-8.267 4.464-2.824 8.759-8.08 14.401-7.954Zm-33.49-66.377c-1.499-10.8 32.62-38.07 43.077-26.346 2.704 3.018-.843 7.499-4.41 5.594-14.576-3.824-28.517 12.065-38.667 20.752Z" fill="#000"/></g></g><g transform="translate(203 303)"/></g></svg>